# xmcd
# 
# Track frame offsets:
#     150
#     16445
#     42622
#     64295
#     87010
#     108930
#     128867
#     152342
#     172545
#     195915
# 
# Disc length: 2895
# 
# Revision: 3
# Processed by: cddbd v1.5.2PL0 Copyright (c) Steve Scherf et al.
# Submitted via: fre:ac v1.0.17
# 
DISCID=700b4d0a
DTITLE=張惠妹 - 1996-2000 妹力新世紀 Disc 1
DYEAR=1999
DGENRE=Pop
TTITLE0=我要飛
TTITLE1=愛，永遠不會消失
TTITLE2=一想到你呀
TTITLE3=最愛的人傷我最深
TTITLE4=不要騙我
TTITLE5=牽手
TTITLE6=愛到不能收
TTITLE7=一個人跳舞
TTITLE8=對愛投降
TTITLE9=解脫
EXTD=
EXTT0=Written by Jon Brion\n(c) 1999 New Line Productions, Inc.
EXTT1=Written and composed by: Luis Bacalov\n\n
EXTT2=Written and composed by: Luis Bacalov\n\n
EXTT3=Written and composed by: Luis Bacalov\n\n
EXTT4=Prints' Nilskiy\nBlanche\nMarkiz\nGeneral\nAleksey\nPolina
EXTT5=Written and composed by: Luis Bacalov\n\n
EXTT6=General\nPotapïch
EXTT7=Ìàð³ÿ Áóðìàêà, Áîãäàí-²ãîð Àíòîíè÷\n
EXTT8=Diana Ross and The Supremes
EXTT9=1-y Krup'e\nAleksey\nGoryachiy Igrok\nNeudachlivïy Igrok\nStarïy Igrok\nBoleznennïy Igrok\n3-y Igrok\nDama tak Sebe\nUvazhayemaya Dama\nTolstïy Anglichanin\nBlednaya Dama\nDlinnïy Anglichanin\nGorbatïy Igrok\nSomnitel'naya Starushka\n1-y Igrok\n5-y 
EXTT9=Igrok\nPestraya Dama\n6-y Igrok\n6 Igrokov
PLAYORDER=
